<svg width="1441" height="1024" viewBox="0 0 1441 1024" fill="none" xmlns="http://www.w3.org/2000/svg">
<g clip-path="url(#clip0_3_6)">
<rect width="1440" height="1024" transform="translate(0.5)" fill="#082832"/>
<mask id="mask0_3_6" style="mask-type:alpha" maskUnits="userSpaceOnUse" x="-330" y="-238" width="1956" height="1440">
<path d="M758.66 303.828C758.66 451.088 661.295 570.465 541.19 570.465C421.084 570.465 -329.322 53.9679 -329.322 -93.292C-329.322 -240.552 748.866 -37.8213 868.971 -37.8213C989.077 -37.8213 758.66 156.568 758.66 303.828Z" fill="url(#paint0_linear_3_6)"/>
<path d="M843.125 934.853C843.125 1082.11 745.76 1201.49 625.655 1201.49C505.549 1201.49 -163.542 1167.17 -163.542 1019.91C-163.542 872.645 -114.084 523.821 6.02197 523.821C126.128 523.821 843.125 787.593 843.125 934.853Z" fill="url(#paint1_radial_3_6)"/>
<path d="M1089.82 304.232C1413.89 596.92 1264.19 449.832 1542.53 442.422C1586.2 450.833 1660.32 451.233 1607.51 385.542C1541.5 303.427 1562.77 245.429 1480.27 155.965C1397.77 66.5011 1347.52 -24.3927 1222.97 -166.683C1098.41 -308.973 1088.83 -191.679 948.408 -202.798C807.988 -213.917 872.034 -196.26 678.29 10.1973C484.546 216.654 765.755 11.5432 1089.82 304.232Z" fill="#D9D9D9"/>
<path d="M783.874 764.614C350.194 815.672 559.47 799.913 381.712 1014.23C346.622 1041.55 297.497 1097.06 381.712 1100.59C486.98 1105 516.607 1159.21 638.264 1156.06C759.921 1152.91 861.407 1174.97 1050.51 1174.97C1239.62 1174.97 1157.67 1090.5 1258.53 992.169C1359.38 893.835 1303.91 930.395 1276.18 648.629C1248.44 366.864 1217.55 713.555 783.874 764.614Z" fill="#D9D9D9"/>
</mask>
<g mask="url(#mask0_3_6)">
<line x1="-31.7954" y1="609.548" x2="1479.78" y2="609.548" stroke="white" stroke-opacity="0.09" stroke-width="1.2607"/>
<line x1="-31.7954" y1="932.286" x2="1479.78" y2="932.286" stroke="white" stroke-opacity="0.09" stroke-width="1.2607"/>
<line x1="-31.7954" y1="286.81" x2="1479.78" y2="286.81" stroke="white" stroke-opacity="0.09" stroke-width="1.2607"/>
<line x1="-31.7954" y1="448.178" x2="1479.78" y2="448.178" stroke="white" stroke-opacity="0.09" stroke-width="1.2607"/>
<line x1="-31.7954" y1="770.916" x2="1479.78" y2="770.916" stroke="white" stroke-opacity="0.09" stroke-width="1.2607"/>
<line x1="-31.7954" y1="125.439" x2="1479.78" y2="125.439" stroke="white" stroke-opacity="0.09" stroke-width="1.2607"/>
<line x1="-31.7954" y1="528.863" x2="1479.78" y2="528.863" stroke="white" stroke-opacity="0.09" stroke-width="1.2607"/>
<line x1="-31.7954" y1="851.601" x2="1479.78" y2="851.601" stroke="white" stroke-opacity="0.09" stroke-width="1.2607"/>
<line x1="-31.7954" y1="206.125" x2="1479.78" y2="206.125" stroke="white" stroke-opacity="0.09" stroke-width="1.2607"/>
<line x1="-31.7954" y1="1012.97" x2="1479.78" y2="1012.97" stroke="white" stroke-opacity="0.09" stroke-width="1.2607"/>
<line x1="-31.7954" y1="367.493" x2="1479.78" y2="367.493" stroke="white" stroke-opacity="0.09" stroke-width="1.2607"/>
<line x1="-31.7954" y1="690.233" x2="1479.78" y2="690.233" stroke="white" stroke-opacity="0.09" stroke-width="1.2607"/>
<line x1="-31.7954" y1="44.7544" x2="1479.78" y2="44.7544" stroke="white" stroke-opacity="0.09" stroke-width="1.2607"/>
<line x1="15.4798" y1="-64.2951" x2="15.4798" y2="1103.11" stroke="white" stroke-opacity="0.09" stroke-width="1.2607"/>
<line x1="660.961" y1="-64.2951" x2="660.961" y2="1103.11" stroke="white" stroke-opacity="0.09" stroke-width="1.2607"/>
<line x1="338.22" y1="-64.2953" x2="338.22" y2="1103.11" stroke="white" stroke-opacity="0.09" stroke-width="1.2607"/>
<line x1="983.697" y1="-64.2951" x2="983.696" y2="1103.11" stroke="white" stroke-opacity="0.09" stroke-width="1.2607"/>
<line x1="1306.44" y1="-64.2951" x2="1306.44" y2="1103.11" stroke="white" stroke-opacity="0.09" stroke-width="1.2607"/>
<line x1="176.85" y1="-64.2951" x2="176.85" y2="1103.11" stroke="white" stroke-opacity="0.09" stroke-width="1.2607"/>
<line x1="822.326" y1="-64.2951" x2="822.326" y2="1103.11" stroke="white" stroke-opacity="0.09" stroke-width="1.2607"/>
<line x1="499.59" y1="-64.2951" x2="499.59" y2="1103.11" stroke="white" stroke-opacity="0.09" stroke-width="1.2607"/>
<line x1="1145.07" y1="-64.2953" x2="1145.07" y2="1103.11" stroke="white" stroke-opacity="0.09" stroke-width="1.2607"/>
<line x1="96.1671" y1="-64.2951" x2="96.1671" y2="1103.11" stroke="white" stroke-opacity="0.09" stroke-width="1.2607"/>
<line x1="741.644" y1="-64.2953" x2="741.643" y2="1103.11" stroke="white" stroke-opacity="0.09" stroke-width="1.2607"/>
<line x1="418.903" y1="-64.2951" x2="418.903" y2="1103.11" stroke="white" stroke-opacity="0.09" stroke-width="1.2607"/>
<line x1="1064.38" y1="-64.2951" x2="1064.38" y2="1103.11" stroke="white" stroke-opacity="0.09" stroke-width="1.2607"/>
<line x1="1387.12" y1="-64.2951" x2="1387.12" y2="1103.11" stroke="white" stroke-opacity="0.09" stroke-width="1.2607"/>
<line x1="257.537" y1="-64.2951" x2="257.537" y2="1103.11" stroke="white" stroke-opacity="0.09" stroke-width="1.2607"/>
<line x1="903.014" y1="-64.2951" x2="903.014" y2="1103.11" stroke="white" stroke-opacity="0.09" stroke-width="1.2607"/>
<line x1="580.273" y1="-64.2951" x2="580.273" y2="1103.11" stroke="white" stroke-opacity="0.09" stroke-width="1.2607"/>
<line x1="1225.75" y1="-64.2951" x2="1225.75" y2="1103.11" stroke="white" stroke-opacity="0.09" stroke-width="1.2607"/>
<g opacity="0.7">
<rect x="822.385" y="770.859" width="80.2262" height="80.2262" fill="#24613D" fill-opacity="0.36"/>
<rect x="418.962" y="770.859" width="80.2262" height="80.2262" fill="#24613D" fill-opacity="0.25"/>
<rect x="1145.58" y="206.983" width="80.2262" height="79.0801" fill="#24613D" fill-opacity="0.11"/>
<rect x="499.188" y="126.757" width="80.2262" height="79.0801" fill="#0DA932" fill-opacity="0.31"/>
<rect x="1064.21" y="287.209" width="80.2262" height="79.0801" fill="#24613D" fill-opacity="0.11"/>
<rect x="417.816" y="206.983" width="80.2262" height="79.0801" fill="#0DA932" fill-opacity="0.31"/>
<rect x="1064.21" y="206.983" width="80.2262" height="79.0801" fill="#24613D" fill-opacity="0.11"/>
<rect x="417.816" y="126.757" width="80.2262" height="79.0801" fill="#0DA932" fill-opacity="0.31"/>
<rect x="338.736" y="770.859" width="80.2262" height="80.2262" fill="#24613D" fill-opacity="0.25"/>
<rect x="338.736" y="851.085" width="80.2262" height="81.3723" fill="#24613D" fill-opacity="0.25"/>
<rect x="177.137" y="690.633" width="80.2262" height="80.2262" fill="#24613D" fill-opacity="0.25"/>
<rect x="983.984" y="45.3846" width="80.2262" height="80.2262" fill="#0FAE27" fill-opacity="0.61"/>
<rect x="903.758" y="-46.3024" width="80.2262" height="80.2262" fill="#0FAE27" fill-opacity="0.61"/>
<rect x="902.881" y="44.2385" width="80.2262" height="81.3723" fill="#0FAE27" fill-opacity="0.61"/>
<rect x="177.138" y="124.465" width="81.3723" height="82.5184" fill="#0D992F" fill-opacity="0.24"/>
<rect x="95.7652" y="44.2385" width="81.3723" height="80.2262" fill="#0D992F" fill-opacity="0.24"/>
<rect x="15.539" y="45.3846" width="81.3723" height="80.2262" fill="#0D992F" fill-opacity="0.24"/>
<rect x="95.7652" y="124.465" width="81.3723" height="82.5184" fill="#0D992F" fill-opacity="0.24"/>
<rect x="418.962" y="-35.9877" width="81.3723" height="80.2262" fill="#0B902B"/>
<rect x="177.138" y="286.063" width="80.2262" height="81.3723" fill="#0D992F" fill-opacity="0.24"/>
<rect x="1145.58" y="690.633" width="80.2262" height="80.2262" fill="#1B8B3B" fill-opacity="0.26"/>
<rect x="1225.81" y="770.859" width="80.2262" height="80.2262" fill="#1B8B3B" fill-opacity="0.26"/>
</g>
</g>
</g>
<defs>
<linearGradient id="paint0_linear_3_6" x1="190.086" y1="-19.5411" x2="644.567" y2="222.513" gradientUnits="userSpaceOnUse">
<stop stop-color="white"/>
<stop offset="1" stop-color="white" stop-opacity="0"/>
</linearGradient>
<radialGradient id="paint1_radial_3_6" cx="0" cy="0" r="1" gradientUnits="userSpaceOnUse" gradientTransform="translate(155.415 941.112) rotate(-29.3932) scale(777.019 1335.47)">
<stop stop-color="white"/>
<stop offset="1" stop-color="white" stop-opacity="0"/>
</radialGradient>
<clipPath id="clip0_3_6">
<rect width="1440" height="1024" fill="white" transform="translate(0.5)"/>
</clipPath>
</defs>
</svg>
